<svg id="Layer_1" data-name="Layer 1" xmlns="http://www.w3.org/2000/svg" viewBox="0 0 600 600"><defs><style>.cls-1{fill:#ffebcd;stroke:#000;stroke-miterlimit:10;}.cls-2{fill:#353535;}.cls-3{fill:#a0867c;}.cls-4{fill:#ff9100;}</style></defs><title>Artboard 1</title><rect class="cls-1" width="600" height="600"/><rect class="cls-2" x="151.56" y="331.4" width="236.17" height="30.91"/><rect class="cls-2" x="466.35" y="383.61" width="22.98" height="45.17"/><rect class="cls-2" x="358.57" y="386.91" width="20.61" height="156.92"/><rect class="cls-2" x="138.88" y="399.55" width="20.55" height="62.61"/><rect class="cls-2" x="251.17" y="388.77" width="4.13" height="60.09"/><rect class="cls-2" x="321.42" y="406.2" width="11.7" height="55.96"/><rect class="cls-2" x="198.42" y="465.37" width="84.4" height="36.24"/><circle class="cls-3" cx="182.53" cy="467.1" r="27.64"/><rect class="cls-2" x="164.47" y="411.7" width="6.42" height="43.58"/><rect class="cls-2" x="174.57" y="426.38" width="8.72" height="24.68"/><rect class="cls-2" x="258.97" y="406.2" width="6.42" height="38.99"/><rect class="cls-2" x="269.64" y="418.81" width="6.76" height="30.05"/><circle class="cls-4" cx="327.8" cy="443.07" r="63.19"/><rect class="cls-2" x="450.6" y="445.19" width="23.75" height="98.64"/><rect class="cls-2" x="291.76" y="383.61" width="60.86" height="15.94"/><rect class="cls-2" x="291.76" y="462.16" width="6.68" height="100.97"/><rect class="cls-2" x="303.64" y="494.51" width="6.68" height="64.17"/><rect class="cls-2" x="316.26" y="526.59" width="5.16" height="36.54"/><rect class="cls-2" x="318.84" y="480" width="33.79" height="8.91"/><rect class="cls-2" x="387.73" y="465.37" width="12.4" height="83.65"/></svg>