<?xml version="1.0" encoding="utf-8"?>
<!-- Generator: Adobe Illustrator 22.1.0, SVG Export Plug-In . SVG Version: 6.00 Build 0)  -->
<svg version="1.1" id="Layer_1" xmlns="http://www.w3.org/2000/svg" xmlns:xlink="http://www.w3.org/1999/xlink" x="0px" y="0px"
	 viewBox="0 0 601 290.5" style="enable-background:new 0 0 601 290.5;" xml:space="preserve">
<style type="text/css">
	.st0{fill:#FFEBCD;}
	.st1{fill:#353535;}
	.st2{fill:#A0867C;}
	.st3{fill:#FF9100;}
</style>
<title>Artboard 1</title>
<rect x="0.5" class="st0" width="600" height="290.5"/>
<rect x="142.1" y="33.4" class="st1" width="236.2" height="30.9"/>
<rect x="456.9" y="85.6" class="st1" width="23" height="45.2"/>
<rect x="349.1" y="88.9" class="st1" width="20.6" height="156.9"/>
<rect x="129.4" y="101.5" class="st1" width="20.6" height="62.6"/>
<rect x="241.7" y="90.8" class="st1" width="4.1" height="60.1"/>
<rect x="311.9" y="108.2" class="st1" width="11.7" height="56"/>
<rect x="188.9" y="167.4" class="st1" width="84.4" height="36.2"/>
<circle class="st2" cx="173" cy="169.1" r="27.6"/>
<rect x="155" y="113.7" class="st1" width="6.4" height="43.6"/>
<rect x="165.1" y="128.4" class="st1" width="8.7" height="24.7"/>
<rect x="249.5" y="108.2" class="st1" width="6.4" height="39"/>
<rect x="260.1" y="120.8" class="st1" width="6.8" height="30"/>
<circle class="st3" cx="318.3" cy="145.1" r="63.2"/>
<rect x="441.1" y="147.2" class="st1" width="23.8" height="98.6"/>
<rect x="282.3" y="85.6" class="st1" width="60.9" height="15.9"/>
<rect x="282.3" y="164.2" class="st1" width="6.7" height="101"/>
<rect x="294.1" y="196.5" class="st1" width="6.7" height="64.2"/>
<rect x="306.8" y="228.6" class="st1" width="5.2" height="36.5"/>
<rect x="309.3" y="182" class="st1" width="33.8" height="8.9"/>
<rect x="378.2" y="167.4" class="st1" width="12.4" height="83.7"/>
</svg>
