<svg id="Layer_1" data-name="Layer 1" xmlns="http://www.w3.org/2000/svg" viewBox="0 0 600 600"><defs><style>.cls-1{fill:#fff;}</style></defs><title>Artboard 1</title><circle class="cls-1" cx="36.97" cy="36.97" r="36.97"/><circle class="cls-1" cx="142.18" cy="36.97" r="36.97"/><circle class="cls-1" cx="247.39" cy="36.97" r="36.97"/><circle class="cls-1" cx="352.61" cy="36.97" r="36.97"/><circle class="cls-1" cx="457.82" cy="36.97" r="36.97"/><circle class="cls-1" cx="563.03" cy="36.97" r="36.97"/><circle class="cls-1" cx="36.97" cy="563.03" r="36.97"/><circle class="cls-1" cx="142.18" cy="563.03" r="36.97"/><circle class="cls-1" cx="247.39" cy="563.03" r="36.97"/><circle class="cls-1" cx="352.61" cy="563.03" r="36.97"/><circle class="cls-1" cx="457.82" cy="563.03" r="36.97"/><circle class="cls-1" cx="563.03" cy="563.03" r="36.97"/><circle class="cls-1" cx="36.97" cy="457.82" r="36.97"/><circle class="cls-1" cx="36.97" cy="352.61" r="36.97"/><circle class="cls-1" cx="36.97" cy="247.39" r="36.97"/><circle class="cls-1" cx="36.97" cy="142.18" r="36.97"/><circle class="cls-1" cx="563.03" cy="457.82" r="36.97"/><circle class="cls-1" cx="563.03" cy="352.61" r="36.97"/><circle class="cls-1" cx="563.03" cy="247.39" r="36.97"/><circle class="cls-1" cx="563.03" cy="142.18" r="36.97"/></svg>